<svg xmlns="http://www.w3.org/2000/svg" viewBox="0 0 900 600">
  <rect width="900" height="600" fill="#de2910"/>
  <polygon fill="#ffde00" points="144,96 155,129 190,129 161,150 172,183 144,162 116,183 127,150 98,129 133,129" transform="translate(-44,-36) scale(1.5)"/>
  <polygon fill="#ffde00" points="288,48 293,64 310,64 296,75 301,91 288,81 274,91 279,75 265,64 282,64"/>
  <polygon fill="#ffde00" points="360,96 365,112 382,112 368,123 373,139 360,129 346,139 351,123 337,112 354,112"/>
  <polygon fill="#ffde00" points="360,192 365,208 382,208 368,219 373,235 360,225 346,235 351,219 337,208 354,208"/>
  <polygon fill="#ffde00" points="288,240 293,256 310,256 296,267 301,283 288,273 274,283 279,267 265,256 282,256"/>
</svg>
